<svg id="Capa_1" enable-background="new 0 0 510 510" height="512" viewBox="0 0 510 510" width="512" xmlns="http://www.w3.org/2000/svg"><g><g><path d="m0 200.375v107.125c0 34.373 28.156 65.621 79.282 87.988 47.184 20.644 109.588 32.012 175.718 32.012l26-53-26-52z" fill="#ffe079"/><path d="m255 322.5v105c66.13 0 128.534-11.368 175.718-32.012 51.126-22.367 79.282-53.615 79.282-87.988v-105.125z" fill="#ffc83e"/><path d="m255 82.5c-66.13 0-128.534 11.369-175.718 32.012-51.126 22.367-79.282 53.615-79.282 87.988s28.156 65.621 79.282 87.988c79.21 34.657 173.583 31.823 175.718 32.012l33.333-116z" fill="#ffc83e"/><path d="m255 202.5v120c54.691 0 106.826-7.783 149.919-22.15l-64.919-77.85z" fill="#ffae3a"/><path d="m510 202.5c0-34.373-28.156-65.621-79.282-87.988-47.184-20.643-109.588-32.012-175.718-32.012v120l149.919 97.85c9.012-3.005 17.638-6.291 25.799-9.861 51.126-22.368 79.282-53.616 79.282-87.989z" fill="#f49937"/></g></g></svg>