<svg id="Capa_1" enable-background="new 0 0 512 512" height="512" viewBox="0 0 512 512" width="512" xmlns="http://www.w3.org/2000/svg"><g><path d="m256 435.132c-65.914 0-128.09-8.457-175.073-23.814-66.887-21.863-80.927-50.111-80.927-69.959v-170.718c0-8.284 6.716-15 15-15h482c8.284 0 15 6.716 15 15v170.719c0 19.848-14.04 48.096-80.927 69.958-46.983 15.357-109.159 23.814-175.073 23.814z" fill="#ffce55"/><g><path d="m256 435.132c-65.914 0-128.09-8.457-175.073-23.814-66.887-21.863-80.927-50.111-80.927-69.959v-170.718c0-8.284 6.716-15 15-15h482c8.284 0 15 6.716 15 15v170.719c0 19.848-14.04 48.096-80.927 69.958-46.983 15.357-109.159 23.814-175.073 23.814z" fill="#ffce55"/></g><path d="m497 155.641h-241v279.491c65.914 0 128.09-8.457 175.073-23.814 66.887-21.863 80.927-50.111 80.927-69.959v-170.718c0-8.285-6.716-15-15-15z" fill="#ff9d21"/><path d="m431.073 100.683c-46.983-15.358-109.159-23.815-175.073-23.815s-128.09 8.457-175.073 23.814c-66.887 21.863-80.927 50.111-80.927 69.959s14.04 48.096 80.927 69.958c46.983 15.357 109.159 23.814 175.073 23.814l256-93.772c0-19.848-14.04-48.096-80.927-69.958z" fill="#f9f578"/><path d="m512 170.641c0-19.848-14.04-48.096-80.927-69.958-46.983-15.358-109.159-23.815-175.073-23.815v187.545z" fill="#ffce55"/><path d="m256 264.413c65.914 0 128.09-8.457 175.073-23.814 66.887-21.863 80.927-50.111 80.927-69.958h-256z" fill="#f47f00"/></g></svg>