<svg id="Layer_1" enable-background="new 0 0 512 512" height="512" viewBox="0 0 512 512" width="512" xmlns="http://www.w3.org/2000/svg"><g><path d="m74.677 96.597 18.969 30.878 35.301 8.535c4.396 1.049 7.089 5.472 6.012 9.867-.284 1.247-.88 2.438-1.73 3.402l-23.534 27.646 2.807 36.265c.34 4.509-3.063 8.45-7.57 8.79-1.531.113-2.978-.198-4.253-.822l-33.09-13.668-33.6 13.894c-4.169 1.701-8.961-.284-10.69-4.48-.482-1.162-.71-2.438-.597-3.714l2.808-36.265-23.533-27.646c-2.949-3.431-2.553-8.62.878-11.539 1.105-.964 2.383-1.56 3.715-1.814l34.989-8.45 19.054-30.991c2.354-3.856 7.429-5.076 11.285-2.694 1.191.736 2.099 1.7 2.779 2.806zm362.649.057-18.969 30.878-35.302 8.535c-4.395 1.049-7.088 5.472-6.039 9.867.313 1.276.908 2.439 1.729 3.403l23.563 27.645-2.807 36.265c-.34 4.537 3.034 8.449 7.57 8.79 1.502.113 2.949-.198 4.225-.822l33.089-13.667 33.6 13.894c4.197 1.701 8.989-.284 10.689-4.452.482-1.19.71-2.466.624-3.742l-2.807-36.265 23.533-27.645c2.949-3.431 2.553-8.592-.906-11.54-1.105-.936-2.383-1.531-3.715-1.814l-34.989-8.45-19.025-30.963c-2.382-3.884-7.429-5.075-11.285-2.722-1.19.735-2.127 1.699-2.778 2.805z" fill="#ebb044"/><path d="m110.97 193.568 1.53 19.621c.34 4.509-3.063 8.45-7.57 8.79-1.531.113-2.978-.198-4.253-.822l-33.088-13.667-33.6 13.894c-4.169 1.701-8.961-.284-10.69-4.48-.482-1.162-.71-2.438-.597-3.714l1.532-19.621c2.155 3.005 6.181 4.281 9.754 2.807l28.382-11.738c3.487-1.447 7.003-1.418 10.462 0l27.845 11.511c1.275.624 2.722.936 4.253.822 2.524-.171 4.679-1.475 6.04-3.403zm290.034.085-1.502 19.593c-.34 4.537 3.034 8.449 7.57 8.79 1.502.113 2.949-.198 4.225-.822l33.089-13.667 33.6 13.894c4.197 1.701 8.989-.284 10.689-4.452.482-1.19.71-2.466.624-3.742l-1.531-19.621c-2.154 3.034-6.182 4.281-9.782 2.807l-27.418-11.342c-3.998-1.645-8.251-1.673-12.335 0l-26.936 11.115c-1.275.652-2.723.936-4.225.822-2.523-.171-4.678-1.475-6.068-3.375z" fill="#ff9838"/><path d="m158.719 82.306 24.413 39.752 45.423 10.945c5.643 1.361 9.13 7.06 7.77 12.731-.398 1.616-1.163 3.091-2.24 4.366l-30.282 35.556 3.602 46.671c.425 5.812-3.914 10.888-9.727 11.313-1.957.142-3.827-.255-5.473-1.049l-42.559-17.58-43.24 17.835c-5.388 2.212-11.541-.34-13.752-5.728-.623-1.502-.907-3.176-.793-4.792l3.629-46.671-30.312-35.556c-3.77-4.423-3.261-11.087 1.163-14.857 1.418-1.219 3.062-1.985 4.792-2.325l44.997-10.86 24.499-39.894c3.061-4.962 9.584-6.521 14.545-3.459 1.503.937 2.694 2.185 3.545 3.602zm194.537.085-24.385 39.724-45.423 10.945c-5.671 1.389-9.13 7.06-7.77 12.731.397 1.616 1.135 3.119 2.24 4.366l30.282 35.557-3.63 46.671c-.425 5.812 3.942 10.888 9.755 11.313 1.956.142 3.827-.255 5.473-1.049l42.559-17.58 43.24 17.835c5.388 2.211 11.541-.34 13.752-5.728.623-1.503.907-3.148.765-4.792l-3.601-46.671 30.282-35.557c3.8-4.423 3.29-11.058-1.134-14.857-1.446-1.219-3.09-1.985-4.792-2.325l-45.025-10.86-24.499-39.864c-3.034-4.991-9.556-6.521-14.517-3.487-1.531.935-2.722 2.183-3.572 3.628z" fill="#ffd064"/><path d="m205.956 213.501 1.447 18.828c.425 5.812-3.914 10.888-9.727 11.313-1.957.142-3.827-.255-5.473-1.049l-42.559-17.58-43.24 17.835c-5.388 2.212-11.541-.34-13.752-5.728-.623-1.502-.907-3.176-.793-4.792l1.474-18.856c2.608 4.423 8.166 6.38 13.071 4.367l37.881-15.624c3.601-1.502 7.287-1.417 10.689 0l37.229 15.369c1.646.793 3.516 1.19 5.473 1.049 3.545-.255 6.58-2.268 8.28-5.132zm100.091.085-1.476 18.799c-.425 5.812 3.942 10.888 9.755 11.313 1.956.142 3.827-.255 5.473-1.049l42.559-17.58 43.24 17.835c5.388 2.211 11.541-.34 13.752-5.728.623-1.503.907-3.148.765-4.792l-1.445-18.855c-2.638 4.451-8.166 6.408-13.071 4.395l-38.051-15.708c-3.289-1.389-6.919-1.446-10.378 0l-37.37 15.425c-1.645.794-3.517 1.19-5.473 1.049-3.574-.256-6.58-2.268-8.28-5.104z" fill="#ffc250"/><g clip-rule="evenodd" fill-rule="evenodd"><path d="m375.004 390.743c43.382-16.899 86.962-27.73 130.599-32.465 3.487-.341 5.132-3.176 3.743-6.38l-17.807-40.546c-1.53-3.46-1.729-7.032 0-10.945l17.777-40.518c1.531-3.488-.084-5.558-3.799-5.161-43.495 4.764-87.019 15.566-130.514 32.437v103.578zm-238.288 0c-43.382-16.899-86.962-27.73-130.6-32.465-3.487-.341-5.132-3.176-3.714-6.38l17.778-40.546c1.53-3.46 1.729-7.032 0-10.973l-17.778-40.49c-1.531-3.488.085-5.558 3.8-5.161 43.523 4.764 87.019 15.566 130.514 32.437z" fill="#d82e3d"/><path d="m375.004 390.743c43.382-16.899 86.962-27.73 130.599-32.465 3.487-.341 5.132-3.176 3.743-6.38l-7.968-18.147c-42.248 4.962-84.381 15.623-126.374 31.983zm-238.288 0c-43.382-16.899-86.962-27.73-130.6-32.465-3.487-.341-5.132-3.176-3.714-6.38l7.939-18.147c42.247 4.962 84.409 15.623 126.374 31.983v25.009z" fill="#c32430"/><path d="m375.004 336.586v-49.421c20.755 5.274 41.51 11.314 62.293 29.347-20.727 8.081-41.509 14.772-62.293 20.074z" fill="#a71f29"/><path d="m136.716 336.586v-49.421c-20.756 5.274-41.51 11.314-62.294 29.347 20.727 8.081 41.509 14.772 62.294 20.074z" fill="#a71f29"/><path d="m74.422 316.512c120.278 46.897 241.917 47.011 362.875 0v97.566c.058 4.906-3.657 7.458-5.896 8.28-117.018 44.006-234.064 43.892-351.081 0-2.438-.907-5.671-3.147-5.897-8.251v-97.595z" fill="#dd636e"/><path d="m437.297 389.297v24.781c.058 4.906-3.657 7.458-5.896 8.28-117.018 44.006-234.064 43.892-351.081 0-2.438-.907-5.671-3.147-5.897-8.251v-25.008c.227 5.103 3.459 7.343 5.897 8.251 117.018 43.892 234.064 44.005 351.081 0 2.21-.794 5.839-3.29 5.896-8.053z" fill="#da4a54"/></g><path d="m74.422 343.533c18.742 7.315 40.234 14.489 59.062 19.479 18.799 5.019 37.626 8.847 56.481 11.54 4.111.595 6.947 4.366 6.38 8.478-.596 4.083-4.396 6.947-8.479 6.352-19.394-2.779-38.788-6.72-58.183-11.88-17.551-4.678-37.313-11.144-55.262-17.948v-16.021zm362.875 15.907c-17.947 6.805-37.71 13.383-55.261 18.062-19.366 5.16-38.789 9.102-58.184 11.88-4.082.595-7.882-2.268-8.45-6.352-.595-4.111 2.241-7.882 6.352-8.478 18.855-2.694 37.684-6.521 56.482-11.54 18.827-4.99 40.319-12.277 59.061-19.593zm0 35.102c-12.22 4.621-25.972 9.414-37.767 12.986-13.695 4.14-27.249 7.684-40.603 10.576-4.055.879-8.025-1.701-8.903-5.756-.879-4.026 1.701-8.024 5.729-8.903 13.353-2.892 26.482-6.294 39.439-10.236 13.1-3.969 28.922-9.555 42.105-14.687zm-362.875-15.878c13.185 5.132 29.006 10.576 42.105 14.545 12.958 3.941 26.086 7.344 39.44 10.236 4.026.879 6.606 4.877 5.728 8.903-.878 4.055-4.848 6.635-8.903 5.756-13.355-2.892-26.907-6.437-40.603-10.576-11.796-3.572-25.547-8.251-37.768-12.844v-16.02z" fill="#e28086"/><path d="m267.655 63.394 31.699 51.605 59.005 14.234c7.344 1.786 11.853 9.158 10.066 16.502-.511 2.098-1.475 4.055-2.893 5.699l-39.355 46.161 4.707 60.621c.567 7.542-5.104 14.121-12.646 14.688-2.522.199-4.961-.311-7.089-1.36l-55.29-22.854-56.142 23.194c-7.003 2.864-14.999-.454-17.862-7.457-.794-1.957-1.191-4.083-1.02-6.21l4.707-60.621-39.355-46.161c-4.906-5.755-4.254-14.403 1.502-19.309 1.844-1.588 3.998-2.581 6.21-3.034l58.466-14.092 31.813-51.775c3.97-6.464 12.419-8.478 18.884-4.508 1.955 1.19 3.515 2.834 4.593 4.677z" fill="#fff0af"/><path d="m329.495 240.324 1.39 17.892c.567 7.542-5.104 14.121-12.646 14.688-2.522.199-4.961-.311-7.089-1.36l-55.29-22.854-56.142 23.194c-7.003 2.864-14.999-.454-17.862-7.457-.794-1.957-1.191-4.083-1.02-6.21l1.39-17.948c3.146 6.408 10.774 9.357 17.493 6.607l49.875-20.585c4.452-1.843 8.535-1.673 12.561 0l48.995 20.245c2.128 1.049 4.566 1.56 7.089 1.361 5.019-.371 9.187-3.377 11.256-7.573z" fill="#ffe07d"/></g></svg>