<svg id="Capa_1" enable-background="new 0 0 510 510" height="512" viewBox="0 0 510 510" width="512" xmlns="http://www.w3.org/2000/svg"><g><g><path d="m74.688 157.189c-48.164 48.163-74.688 112.198-74.688 180.311l285-67.5-30-187.5c-68.113 0-132.148 26.524-180.312 74.689z" fill="#fff5f5"/><path d="m435.312 157.189c-48.164-48.165-112.199-74.689-180.312-74.689v165l255 90c0-68.113-26.524-132.148-74.688-180.311z" fill="#e9f3fb"/><path d="m0 337.5c0 59.086 128.281 90 255 90l41.333-90-41.333-90c-126.719 0-255 30.914-255 90z" fill="#e9f3fb"/><path d="m255 247.5v180c126.719 0 255-30.914 255-90s-128.281-90-255-90z" fill="#d6e9f8"/></g></g></svg>