<svg id="Capa_1" enable-background="new 0 0 497.002 497.002" viewBox="0 0 497.002 497.002" xmlns="http://www.w3.org/2000/svg"><g><path d="m248.501 398.636c7.193 0 14.385 1.724 20.942 5.172l97.825 51.429c5.168 2.717 11.076 2.289 15.8-1.142 4.724-3.433 6.956-8.918 5.968-14.673l-18.683-108.93c-2.504-14.602 2.334-29.493 12.942-39.834l79.143-77.145c4.182-4.076 5.601-9.825 3.796-15.38-1.805-5.554-6.332-9.37-12.11-10.21l-109.373-15.893c-14.661-2.13-27.328-11.333-33.884-24.619l-48.913-99.107c-2.584-5.236-7.613-8.363-13.453-8.363s-10.869 3.127-13.453 8.363l-48.913 99.108c-6.556 13.285-19.223 22.488-33.884 24.618l-109.372 15.894c-5.779.84-10.306 4.656-12.111 10.21-1.805 5.555-.385 11.304 3.796 15.38l79.143 77.145c10.608 10.341 15.447 25.232 12.942 39.834l-18.683 108.93c-.987 5.755 1.244 11.24 5.968 14.673 4.725 3.433 10.632 3.859 15.8 1.142l97.825-51.43c6.556-3.448 13.75-5.172 20.942-5.172z" fill="#fff"/><path d="m483.378 234.996c12.356-12.044 16.72-29.722 11.388-46.133s-19.253-28.146-36.329-30.627l-109.373-15.893c-4.887-.711-9.11-3.778-11.295-8.208l-48.915-99.112c-16.507-33.446-64.2-33.446-80.706 0l-3.276 6.638 15.176 6.643c4.025-8.156 11.858-13.026 20.953-13.026s16.929 4.87 20.953 13.026l48.913 99.107c6.556 13.286 19.223 22.489 33.884 24.619l109.373 15.893c5.779.84 10.306 4.656 12.11 10.21 1.805 5.555.385 11.304-3.796 15.38l-79.143 77.145c-10.608 10.341-15.447 25.232-12.942 39.834l18.683 108.93c1.829 10.663-2.305 20.827-11.059 27.187-8.752 6.357-19.699 7.149-29.275 2.115l-1.942 9.624 6.553 3.445c33.013 17.356 71.598-10.677 65.293-47.438l-18.685-108.935c-.835-4.867.778-9.832 4.314-13.279z" fill="#ffd465"/><path d="m389.036 439.422c.987 5.755-1.244 11.24-5.968 14.673-4.724 3.431-10.631 3.858-15.8 1.142l-97.825-51.429c-6.557-3.448-13.749-5.172-20.942-5.172-7.192 0-14.386 1.725-20.941 5.171l-97.825 51.43c-5.168 2.718-11.075 2.291-15.8-1.142-4.724-3.433-6.956-8.918-5.968-14.673l18.683-108.93c2.504-14.602-2.334-29.493-12.942-39.834l-79.143-77.145c-4.182-4.076-5.601-9.825-3.796-15.38 1.805-5.554 6.332-9.37 12.111-10.21l109.372-15.893c14.661-2.13 27.328-11.333 33.884-24.618l48.913-99.108c2.584-5.236 7.613-8.363 13.453-8.363s10.869 3.127 13.453 8.363c0 0-3.278-6.643-3.278-6.643-11.004-22.297-42.8-22.297-53.804 0l-45.64 92.477c-2.186 4.427-6.408 7.494-11.294 8.205l-109.374 15.893c-17.076 2.48-30.996 14.216-36.329 30.627s-.969 34.089 11.388 46.133l79.143 77.145c3.537 3.447 5.149 8.412 4.314 13.279l-18.683 108.93c-2.917 17.007 3.943 33.873 17.903 44.016 13.959 10.142 32.12 11.454 47.394 3.426l97.826-51.431c4.371-2.297 9.59-2.298 13.962.001l91.277 47.987c22.009 11.571 47.732-7.118 43.528-31.625z" fill="#ffea94"/></g><g/><g/><g/><g/><g/><g/><g/><g/><g/><g/><g/><g/><g/><g/><g/></svg>