<?xml version="1.0" encoding="utf-8"?>
<!-- Generator: Adobe Illustrator 27.6.1, SVG Export Plug-In . SVG Version: 6.00 Build 0)  -->
<svg version="1.1" id="レイヤー_1" xmlns="http://www.w3.org/2000/svg" xmlns:xlink="http://www.w3.org/1999/xlink" x="0px"
	 y="0px" viewBox="0 0 512 512" style="enable-background:new 0 0 512 512;" xml:space="preserve">
<style type="text/css">
	.st0{fill:#66D15F;}
	.st1{fill:#53BC77;}
	.st2{fill:#FFFFFF;}
</style>
<path class="st0" d="M511.9,256c0-141.4-114.6-256-256-256C114.6,0,0,114.6,0,256s114.6,256,256,256
	C397.3,512,511.9,397.4,511.9,256z"/>
<path class="st1" d="M414,54.6c34.2,43.5,54.6,98.4,54.6,158.1c0,141.4-114.6,256-256,256c-59.7,0-114.5-20.4-158.1-54.6
	C101.5,473.7,174.2,512,256,512c141.4,0,256-114.6,256-256C511.9,174.3,473.6,101.5,414,54.6z"/>
<g>
	<path class="st2" d="M227,335.8c4.9,0,9.8,1.2,14.3,3.5l67,35.2c3.5,1.9,7.6,1.6,10.8-0.8c3.2-2.3,4.8-6.1,4.1-10l-12.8-74.6
		c-1.7-10,1.6-20.2,8.9-27.3l54.2-52.8c2.9-2.8,3.8-6.7,2.6-10.5c-1.2-3.8-4.3-6.4-8.3-7l-74.9-10.9c-10-1.5-18.7-7.8-23.2-16.8
		L236.2,96c-1.8-3.6-5.2-5.7-9.2-5.7c-4,0-7.4,2.1-9.2,5.7l-33.5,67.8c-4.5,9.1-13.2,15.4-23.2,16.8l-74.9,10.9
		c-4,0.6-7.1,3.2-8.3,7c-1.2,3.8-0.3,7.7,2.6,10.5l54.2,52.8c7.3,7.1,10.6,17.3,8.9,27.3l-12.8,74.6c-0.7,3.9,0.9,7.7,4.1,10
		c3.2,2.3,7.3,2.6,10.8,0.8l67-35.2C217.2,337,222.1,335.8,227,335.8L227,335.8z"/>
</g>
</svg>
