<svg id="Capa_1" enable-background="new 0 0 512 512" height="512" viewBox="0 0 512 512" width="512" xmlns="http://www.w3.org/2000/svg"><path d="m509.859 198.899c4.192-4.086 1.879-11.206-3.915-12.048l-34.386-4.997c-2.301-.334-4.289-1.779-5.318-3.864l-15.378-31.159c-2.591-5.25-10.077-5.25-12.668 0l-15.378 31.159c-1.029 2.085-3.018 3.53-5.318 3.864l-34.386 4.997c-5.793.842-8.107 7.961-3.915 12.048l24.882 24.254c1.665 1.623 2.424 3.961 2.032 6.252l-5.874 34.248c-.99 5.77 5.067 10.17 10.248 7.446l30.756-16.169c2.058-1.082 4.516-1.082 6.573 0l30.756 16.169c5.182 2.724 11.238-1.676 10.248-7.446l-5.874-34.248c-.393-2.291.367-4.629 2.032-6.252z" fill="#fee55a"/><path d="m441.137 240.356c.393-2.291-.367-4.629-2.032-6.252l-24.882-24.254c-4.192-4.086-1.879-11.205 3.914-12.048l34.386-4.997c2.301-.334 4.289-1.779 5.318-3.864l6.901-13.983-13.882-28.127c-2.591-5.25-10.077-5.25-12.668 0l-15.378 31.159c-1.029 2.085-3.018 3.53-5.318 3.864l-34.386 4.997c-5.794.842-8.107 7.962-3.914 12.048l24.882 24.254c1.665 1.622 2.425 3.961 2.032 6.252l-5.874 34.248c-.989 5.77 5.067 10.17 10.248 7.446l27.894-14.664z" fill="#ffd301"/><path d="m2.141 198.899c-4.192-4.086-1.879-11.206 3.915-12.048l34.386-4.997c2.301-.334 4.289-1.779 5.318-3.864l15.378-31.159c2.591-5.25 10.077-5.25 12.668 0l15.378 31.159c1.029 2.085 3.018 3.53 5.318 3.864l34.386 4.997c5.793.842 8.107 7.961 3.915 12.048l-24.882 24.254c-1.665 1.623-2.425 3.961-2.032 6.252l5.874 34.248c.99 5.77-5.067 10.17-10.248 7.446l-30.756-16.169c-2.058-1.082-4.516-1.082-6.573 0l-30.756 16.169c-5.182 2.724-11.238-1.676-10.248-7.446l5.874-34.248c.393-2.291-.367-4.629-2.032-6.252z" fill="#fee55a"/><path d="m56.011 237.475c.393-2.291-.366-4.629-2.031-6.252l-24.882-24.254c-4.192-4.086-1.879-11.205 3.915-12.047l34.386-4.997c2.301-.334 4.289-1.779 5.318-3.864l10.225-20.718-9.136-18.511c-2.591-5.25-10.077-5.25-12.668 0l-15.378 31.159c-1.029 2.085-3.018 3.53-5.318 3.864l-34.386 4.997c-5.794.842-8.107 7.962-3.914 12.048l24.882 24.254c1.665 1.622 2.425 3.961 2.032 6.252l-5.874 34.248c-.99 5.77 5.067 10.17 10.248 7.446l18.481-9.716z" fill="#ffd301"/><path d="m442.07 224.929c5.148-5.018 2.307-13.761-4.807-14.795l-42.228-6.136c-2.825-.411-5.268-2.185-6.531-4.745l-18.885-38.265c-3.182-6.447-12.375-6.447-15.557 0l-18.885 38.265c-1.263 2.56-3.706 4.335-6.531 4.745l-42.228 6.136c-7.115 1.034-9.955 9.777-4.807 14.795l30.556 29.785c2.045 1.993 2.977 4.864 2.495 7.677l-7.214 42.058c-1.215 7.086 6.222 12.489 12.586 9.144l37.77-19.856c2.527-1.329 5.545-1.329 8.072 0l37.77 19.856c6.363 3.346 13.801-2.058 12.586-9.144l-7.214-42.058c-.482-2.814.45-5.685 2.495-7.677z" fill="#fee55a"/><path d="m349.432 272.979c.482-2.814-.45-5.685-2.495-7.677l-30.556-29.785c-5.148-5.018-2.307-13.761 4.807-14.795l42.228-6.136c2.825-.411 5.268-2.185 6.531-4.745l11.891-24.094-12.219-24.757c-3.182-6.447-12.375-6.447-15.556 0l-18.885 38.265c-1.264 2.561-3.706 4.335-6.531 4.745l-42.228 6.136c-7.115 1.034-9.956 9.777-4.807 14.795l30.556 29.785c2.045 1.992 2.977 4.864 2.495 7.677l-7.214 42.058c-1.215 7.086 6.222 12.489 12.586 9.144l24.654-12.961z" fill="#ffd301"/><path d="m69.93 224.929c-5.148-5.018-2.307-13.761 4.807-14.795l42.228-6.136c2.825-.411 5.268-2.185 6.531-4.745l18.885-38.265c3.182-6.447 12.375-6.447 15.557 0l18.885 38.265c1.263 2.56 3.706 4.335 6.531 4.745l42.228 6.136c7.115 1.034 9.955 9.777 4.807 14.795l-30.556 29.785c-2.045 1.993-2.977 4.864-2.495 7.677l7.214 42.058c1.215 7.086-6.222 12.489-12.586 9.144l-37.77-19.856c-2.527-1.329-5.545-1.329-8.072 0l-37.77 19.856c-6.363 3.346-13.801-2.058-12.586-9.144l7.214-42.058c.482-2.814-.45-5.685-2.495-7.677z" fill="#fee55a"/><path d="m141.441 272.979c.482-2.814-.45-5.685-2.495-7.677l-30.556-29.785c-5.148-5.018-2.307-13.761 4.807-14.795l42.228-6.136c2.825-.411 5.268-2.185 6.531-4.745l10.045-20.354-14.064-28.497c-3.182-6.447-12.375-6.447-15.557 0l-18.885 38.265c-1.263 2.561-3.706 4.335-6.531 4.745l-42.228 6.136c-7.115 1.034-9.955 9.777-4.807 14.795l30.556 29.785c2.045 1.992 2.977 4.864 2.495 7.677l-7.214 42.058c-1.215 7.086 6.222 12.489 12.586 9.144l28.711-15.094z" fill="#ffd301"/><path d="m358.462 254.575c6.575-6.408 2.947-17.574-6.139-18.895l-53.93-7.837c-3.608-.524-6.727-2.79-8.341-6.06l-24.118-48.868c-4.064-8.234-15.804-8.234-19.867 0l-24.118 48.868c-1.614 3.27-4.733 5.536-8.341 6.06l-53.93 7.837c-9.086 1.32-12.714 12.486-6.139 18.895l39.024 38.039c2.611 2.545 3.802 6.212 3.186 9.805l-9.213 53.712c-1.552 9.049 7.946 15.95 16.073 11.677l48.237-25.359c3.227-1.697 7.082-1.697 10.309 0l48.237 25.359c8.127 4.273 17.625-2.628 16.073-11.677l-9.213-53.712c-.616-3.593.575-7.26 3.186-9.805z" fill="#fee55a"/><path d="m246.914 317.185c.616-3.593-.575-7.26-3.186-9.805l-39.024-38.039c-6.575-6.408-2.947-17.574 6.139-18.895l53.93-7.837c3.608-.524 6.727-2.79 8.341-6.06l12.112-24.542-19.293-39.092c-4.063-8.234-15.804-8.234-19.867 0l-24.118 48.868c-1.613 3.27-4.733 5.536-8.341 6.06l-53.93 7.837c-9.086 1.32-12.714 12.486-6.139 18.895l39.024 38.039c2.611 2.545 3.803 6.212 3.186 9.805l-9.213 53.713c-1.552 9.049 7.946 15.95 16.073 11.677l39.153-20.583z" fill="#ffd301"/></svg>