<!--?xml version="1.0" encoding="utf-8"?-->
<!-- Generator: Adobe Illustrator 18.1.1, SVG Export Plug-In . SVG Version: 6.00 Build 0)  -->

<svg version="1.1" id="_x31_0" xmlns="http://www.w3.org/2000/svg" xmlns:xlink="http://www.w3.org/1999/xlink" x="0px" y="0px" viewBox="0 0 512 512" style="width: 48px; height: 48px; opacity: 1;" xml:space="preserve">
<style type="text/css">
	.st0{fill:#374149;}
</style>
<g>
	<path class="st0" d="M184.477,368.508c-0.866-0.708-1.73-1.493-2.596-2.285c-7.642,1.338-15.442,1.97-23.319,1.97l-3.938-0.078
		l-25.754,20.066l-12.778,9.854l-5.419-38.273l-2.126-0.862c-41.119-15.992-67.742-50.654-67.742-88.3
		c0-42.538,32.846-79.638,80.896-92.63c3.596-13.258,8.811-26.019,15.496-38.185c1.227-2.173,2.408-4.377,3.738-6.485
		c-0.038,0.004-0.073,0.012-0.111,0.015c0.034-0.058,0.062-0.115,0.096-0.169c-34.896,3.308-66.719,16.308-92.004,37.415
		C17.408,196.793,0,232.315,0,270.6c0,47.023,28.042,91.608,73.411,116.815l3.231,23.154c1.892,12.923,10.554,24.107,22.685,29.069
		c4.334,1.731,9.138,2.677,13.784,2.677c8.274,0,16.308-2.754,22.689-7.877l33.081-25.762c16.219-0.892,32.123-4.088,47.138-9.2
		c3.408-1.126,6.815-2.25,10.138-3.573c-0.046-0.019-0.088-0.046-0.13-0.069c0.065-0.027,0.134-0.042,0.2-0.074
		C211.181,388.277,197.162,379.138,184.477,368.508z" style="fill: rgb(0, 0, 0);"></path>
	<path class="st0" d="M456.927,112.838c-33.366-27.83-77.27-43.154-123.623-43.154c-46.35,0-90.254,15.323-123.619,43.154
		C174.17,142.47,154.611,182.5,154.611,225.57c0,43.062,19.558,83.1,55.074,112.726c30.366,25.331,70.13,40.519,112.1,42.842
		l37.542,29.312c7.192,5.619,16.181,8.711,25.311,8.711c5.304,0,10.489-1.007,15.408-2.996
		c13.581-5.489,23.277-17.911,25.307-32.411l3.719-26.485C480.281,328.923,512,278.631,512,225.57
		C512,182.508,492.442,142.47,456.927,112.838z M381.611,370.681l-44.019-34.373l-4.288,0.085
		c-73.685,0-133.634-49.716-133.634-110.823c0-61.108,59.95-110.827,133.634-110.827c73.688,0,133.638,49.719,133.638,110.827
		c0,42.754-30.2,82.142-76.942,100.35l-2.15,0.835l-4.123,29.407L381.611,370.681z" style="fill: rgb(0, 0, 0);"></path>
</g>
</svg>
