<?xml version="1.0" encoding="utf-8"?>
<!-- Generator: Adobe Illustrator 27.6.1, SVG Export Plug-In . SVG Version: 6.00 Build 0)  -->
<svg version="1.1" id="レイヤー_1" xmlns="http://www.w3.org/2000/svg" xmlns:xlink="http://www.w3.org/1999/xlink" x="0px"
	 y="0px" viewBox="0 0 595.3 841.9" style="enable-background:new 0 0 595.3 841.9;" xml:space="preserve">
<style type="text/css">
	.st0{fill:#64B72F;}
	.st1{fill:#4D9E36;}
	.st2{fill:#82C147;}
	.st3{fill:#69B830;}
</style>
<path class="st0" d="M351.1,419.1c-0.3,2.5-0.3,4.6-0.7,6.5c-2.2,10.1-8,18.1-16.5,23.9c-15,10.4-31.7,13.3-49.6,9.6
	c-9.3-1.9-17.6-5.7-24.9-11.8c-6.8-5.7-11.7-12.5-13.4-21.2c-0.6-3.3-0.6-6.7-0.9-10.1c0.3-8.6,3.9-16,9.8-22.2
	c13.2-14,30-18.8,48.8-17.4c13.2,1,25,5.5,34.7,14.5C346.7,398.4,351.4,407.5,351.1,419.1z"/>
<path class="st1" d="M245.1,412.9c0.4,3.2,0.3,6.7,1,10.1c1.7,8.9,6.6,15.9,13.4,21.7c7.3,6.3,15.6,10.2,24.9,12.1
	c17.9,3.8,34.6,0.8,49.6-9.8c8.5-6,14.3-14.1,16.5-24.5c0.4-2,0.4-4.2,0.6-6.4c0.1,5.2,0.5,10.7-0.2,16c-1.5,11.7-8,20.5-17.3,27.4
	c-20.5,15-51.9,14.6-72-0.9c-9-6.9-15-15.8-16.4-27.1C244.4,425.6,245,419.3,245.1,412.9z"/>
<path class="st2" d="M313.7,428.1c-0.2-0.2-0.3-0.5-0.4-1C313.5,427.3,313.6,427.6,313.7,428.1z"/>
<path class="st3" d="M293.8,395c-0.9,2.3-1.9,4.6-3,6.9c-1.2,2.4-3.5,2.4-5.9,2.4C287.7,401.2,290.6,398.1,293.8,395z"/>
<path class="st3" d="M294.4,394c0.1,0.1,0,0.3-0.2,0.6C294.1,394.5,294.2,394.4,294.4,394z"/>
</svg>
