<?xml version="1.0" encoding="utf-8"?>
<!-- Generator: Adobe Illustrator 27.6.1, SVG Export Plug-In . SVG Version: 6.00 Build 0)  -->
<svg version="1.1" id="レイヤー_1" xmlns="http://www.w3.org/2000/svg" xmlns:xlink="http://www.w3.org/1999/xlink" x="0px"
	 y="0px" viewBox="0 0 595.3 841.9" style="enable-background:new 0 0 595.3 841.9;" xml:space="preserve">
<style type="text/css">
	.st0{fill:#64B72F;}
	.st1{fill:#4D9E36;}
	.st2{fill:#FFFFFF;}
</style>
<path class="st0" d="M259.4,382.6c-0.3,2.4-0.3,4.5-0.7,6.4c-2.2,9.9-8,17.7-16.5,23.4c-15,10.2-31.7,13-49.6,9.4
	c-9.3-1.9-17.6-5.6-24.9-11.5c-6.8-5.6-11.7-12.2-13.4-20.7c-0.6-3.2-0.6-6.5-0.9-9.9c0.3-8.4,3.9-15.6,9.8-21.7
	c13.2-13.7,30-18.4,48.8-17c13.2,1,25,5.4,34.7,14.2C255,362.3,259.7,371.2,259.4,382.6z"/>
<path class="st1" d="M153.5,375.7c0.4,3.3,0.3,7,1,10.5c1.7,9.3,6.6,16.5,13.4,22.6c7.3,6.5,15.6,10.6,24.9,12.6
	c17.9,3.9,34.6,0.8,49.6-10.2c8.5-6.2,14.3-14.7,16.5-25.5c0.4-2.1,0.4-4.4,0.6-6.7c0.1,5.4,0.5,11.1-0.2,16.6
	c-1.5,12.2-8,21.3-17.3,28.5c-20.5,15.6-51.9,15.2-72-0.9c-9-7.2-15-16.4-16.4-28.2C152.8,388.9,153.4,382.3,153.5,375.7z"/>
<path class="st2" d="M228.1,380l-8.5,8.3l2,11.7c0.2,1.2-0.3,2.4-1.3,3.2c-0.6,0.4-1.2,0.6-1.9,0.6c-0.5,0-1-0.1-1.5-0.4l-10.5-5.5
	l-10.5,5.5c-1.1,0.6-2.4,0.5-3.4-0.2c-1-0.7-1.5-2-1.3-3.2l2-11.7l-8.5-8.3c-0.9-0.9-1.2-2.1-0.8-3.3c0.4-1.2,1.4-2,2.6-2.2
	l11.7-1.7l5.3-10.6c0.5-1.1,1.7-1.8,2.9-1.8c1.2,0,2.4,0.7,2.9,1.8l5.3,10.6l11.7,1.7c1.2,0.2,2.2,1,2.6,2.2
	C229.3,377.9,229,379.2,228.1,380z"/>
</svg>
